<svg width="56" height="48" viewBox="0 0 56 48" fill="none" xmlns="http://www.w3.org/2000/svg">
<path d="M37.7401 46.2577C37.5071 45.4464 36.8727 44.4206 36.176 43.7082C35.4793 42.9957 34.6173 42.4696 33.668 42.1775C32.8658 41.0961 32.3683 39.8165 32.2278 38.4739C34.9748 36.908 36.9961 34.3114 37.8512 31.2502C39.0264 30.9589 41.3704 30.1548 42.5091 28.2186C42.738 28.3909 42.9322 28.6055 43.0815 28.851C43.23 29.0799 43.4623 29.2404 43.7277 29.2976C43.9932 29.3549 44.2703 29.3041 44.4988 29.1565C44.8327 28.9536 45.2196 28.8569 45.6089 28.879C45.9982 28.9011 46.3719 29.0409 46.6812 29.2802C46.8171 29.3911 46.9788 29.4652 47.1511 29.4955C47.3233 29.5257 47.5004 29.5112 47.6656 29.4533C47.8307 29.3954 47.9784 29.296 48.0948 29.1645C48.2112 29.033 48.2923 28.8737 48.3306 28.7018C48.5568 27.7294 48.4603 26.7091 48.056 25.7972C47.6516 24.8854 46.9616 24.1323 46.0918 23.6535C47.0408 21.948 47.5412 20.0264 47.5455 18.0711C49.7872 17.5808 54.5915 16.2273 55.1644 13.5344C55.4667 12.4054 55.6392 11.2452 55.6786 10.0765C55.6574 9.9283 55.6047 9.78648 55.524 9.66077C55.4434 9.53505 55.3366 9.42842 55.2112 9.3482C55.0858 9.26799 54.9446 9.21607 54.7973 9.19604C54.6501 9.17601 54.5003 9.18833 54.3582 9.23215C52.5613 9.75521 50.7167 10.0948 48.8524 10.2458C48.9914 10.1274 49.133 10.0011 49.2772 9.86688C51.2686 8.00886 52.8293 7.38833 54.8389 7.64945C54.9839 7.66858 55.1313 7.65629 55.2713 7.61341C55.4112 7.57054 55.5405 7.49805 55.6504 7.40081C55.7603 7.30356 55.8483 7.1838 55.9086 7.04952C55.9689 6.91524 56.0001 6.76953 56 6.62215C56 6.42675 55.9606 1.82254 52.5566 0.440567C50.3866 -0.441078 49.2584 0.189514 48.3523 0.696356C47.9543 0.969323 47.4916 1.13113 47.0114 1.1653C46.8286 1.16945 46.6118 1.1653 46.3709 1.1653C43.9782 1.14162 38.3842 1.08892 37.4928 6.88504C37.414 7.39662 37.3453 7.88392 37.2789 8.34813C36.6519 12.7646 36.4168 14.4178 31.4257 15.5576C24.9591 17.0349 19.1965 19.2624 14.1595 31.6173C13.8346 32.5635 13.2314 33.3876 12.4303 33.9799C11.6292 34.5722 10.6681 34.9047 9.67488 34.9331C8.55516 34.9767 7.44494 34.7107 6.46449 34.164C5.48403 33.6173 4.6707 32.8107 4.1126 31.8316C3.30523 30.2116 3.62841 28.4158 5.04807 26.6371C5.21202 26.432 5.29235 26.1718 5.27273 25.9092C5.2531 25.6466 5.135 25.4014 4.94241 25.2234C4.74983 25.0454 4.49721 24.9479 4.2359 24.9509C3.97459 24.9538 3.72418 25.0569 3.53557 25.2391C3.38279 25.3871 -0.212773 28.9102 0.00992999 33.3131C0.133327 35.7887 1.41725 38.0043 3.82526 39.8985C5.90243 41.5844 8.4914 42.5 11.1586 42.4919C14.9898 42.4919 18.6835 40.7245 21.5592 38.8208C21.5673 39.5355 21.4083 40.242 21.095 40.8831C21.0248 41.0292 20.9896 41.1899 20.9923 41.3521C20.9949 41.5144 21.0353 41.6738 21.1103 41.8175C21.7894 43.2035 22.1807 44.7146 22.2602 46.2583C22.2602 46.5331 22.0674 47.8057 22.2602 48H37.973C37.973 47.7252 37.973 47.069 37.7401 46.2577ZM5.09096 38.2643C3.1783 36.7597 2.15998 35.0622 2.06479 33.2189C2.04971 32.9253 2.05678 32.631 2.08594 32.3385C2.14882 32.4912 2.21345 32.6345 2.2775 32.7612C3.01153 34.0969 4.09936 35.2008 5.41967 35.9498C6.73997 36.6988 8.24082 37.0634 9.75479 37.0031C11.1418 36.9585 12.4839 36.4967 13.6082 35.6772C14.7326 34.8576 15.5879 33.7177 16.0639 32.4042C20.7342 20.9505 25.7765 18.9729 31.8823 17.5779C38.2543 16.1231 38.6774 13.1466 39.3173 8.64123C39.3819 8.18471 39.4501 7.70511 39.5276 7.20182C40.0988 3.48872 43.3471 3.2057 46.3539 3.23471C46.6183 3.23471 46.8551 3.23886 47.059 3.23471C47.8747 3.19985 48.6669 2.94863 49.3554 2.50642C50.0887 2.09609 50.5306 1.848 51.7927 2.36017C53.1278 2.90195 53.6361 4.44734 53.83 5.51905C51.7528 5.56346 49.9142 6.45044 47.8852 8.3434C46.1259 9.98531 45.0564 9.93024 45.0858 9.93616C44.8281 9.89234 44.5635 9.94905 44.3458 10.0948C44.1281 10.2405 43.9736 10.4642 43.9137 10.7206C43.8539 10.9769 43.8931 11.2466 44.0235 11.4749C44.1539 11.7031 44.3657 11.8727 44.6157 11.9493C47.4703 12.7913 51.3409 12.1098 53.4486 11.6112C53.3793 11.9961 53.2847 12.4828 53.1548 13.0956C52.8822 14.3775 48.9828 15.7264 46.2728 16.2071C46.0111 16.2538 45.7775 16.4007 45.6208 16.617C45.4642 16.8333 45.3967 17.1023 45.4325 17.3677C45.751 19.7201 44.7197 21.9068 44.1298 22.9335C43.173 22.6086 42.1702 22.4424 41.1606 22.4414C41.0243 22.4513 40.8913 22.4885 40.7694 22.5508C40.6476 22.6131 40.5392 22.6992 40.4508 22.8042C40.3623 22.9092 40.2955 23.0308 40.2542 23.1621C40.213 23.2934 40.1981 23.4317 40.2105 23.5688C40.2229 23.7059 40.2623 23.8392 40.3263 23.9608C40.3904 24.0825 40.4779 24.19 40.5837 24.2772C40.6895 24.3643 40.8115 24.4293 40.9425 24.4685C41.0736 24.5076 41.211 24.52 41.3469 24.5049C42.3339 24.5767 43.3056 24.7913 44.232 25.142C44.242 25.1456 44.2526 25.142 44.2626 25.1473C44.2726 25.1527 44.2919 25.1616 44.3084 25.1657C44.7545 25.2441 45.1714 25.4421 45.5153 25.7388C45.8593 26.0355 46.1177 26.42 46.2634 26.852C45.5904 26.7301 44.8978 26.782 44.2502 27.003C43.9494 26.6464 43.5687 26.3671 43.1396 26.1882C42.7104 26.0093 42.2452 25.9358 41.7823 25.9739C41.596 26.0035 41.4213 26.0841 41.2774 26.2069C41.1335 26.3297 41.0258 26.49 40.9661 26.6702C40.5465 27.9373 39.1898 28.6372 38.1491 28.9996C38.1788 27.1347 37.7279 25.2939 36.8405 23.657C36.7743 23.5381 36.6855 23.4335 36.5792 23.3492C36.4729 23.2649 36.3511 23.2025 36.2209 23.1657C36.0906 23.1288 35.9544 23.1181 35.8201 23.1342C35.6858 23.1504 35.5559 23.193 35.4379 23.2597C35.3199 23.3264 35.2161 23.4159 35.1325 23.523C35.0488 23.6302 34.9869 23.7529 34.9503 23.8841C34.9137 24.0154 34.903 24.1526 34.9191 24.2879C34.9351 24.4233 34.9774 24.5542 35.0436 24.6731C35.9312 26.3527 36.2662 28.2732 36.0002 30.1572C35.6843 31.6071 35.0488 32.9669 34.1406 34.1359C33.2325 35.3048 32.0751 36.253 30.7541 36.9101C30.5649 36.9918 30.4044 37.1288 30.2934 37.3034C30.1824 37.478 30.1259 37.6822 30.1312 37.8895C30.1628 40.0582 30.9432 42.1481 32.3383 43.7999C32.4683 43.9369 32.6331 44.0354 32.8148 44.0847C33.3883 44.2256 33.9234 44.4939 34.3808 44.8698C34.8383 45.2458 35.2067 45.7199 35.459 46.2577H30.2499C29.7493 42.4842 27.6286 39.0476 26.7513 37.7622C27.3461 36.4469 27.5851 34.9966 27.4441 33.5582C27.7814 32.1348 27.6903 30.6424 27.1823 29.2715C26.6743 27.9005 25.7724 26.7131 24.5919 25.8608C24.375 25.6978 24.103 25.6274 23.835 25.6651C23.567 25.7027 23.3245 25.8453 23.1601 26.0619C22.9957 26.2785 22.9227 26.5517 22.9568 26.8222C22.991 27.0927 23.1296 27.3387 23.3426 27.5069C24.1941 28.0993 24.8514 28.9337 25.2306 29.9038C25.6099 30.8739 25.6939 31.9358 25.4721 32.9543C24.0278 34.4387 13.4091 44.81 5.09096 38.2666V38.2643ZM23.1487 41.3177C23.6351 40.0933 23.7437 38.7495 23.4601 37.462C24.11 36.9622 24.6941 36.4791 25.19 36.0456C25.0574 36.5051 24.8771 36.9493 24.6524 37.3708C24.559 37.5461 24.5178 37.7448 24.5335 37.9432C24.5492 38.1415 24.6213 38.3311 24.7411 38.4893C24.7717 38.5295 27.5352 42.2249 28.1698 46.2553H24.3122C24.2448 44.5499 23.8497 42.8738 23.1487 41.3201V41.3177Z" fill="black"/>
</svg>
